<svg width="390" height="844" viewBox="0 0 390 844" fill="none" xmlns="http://www.w3.org/2000/svg">
<g clip-path="url(#clip0_321_58)">
<rect width="390" height="844" fill="#E3DEFD" fill-opacity="0.64"/>
<path d="M92.199 379.864C91.8658 379.911 91.247 379.935 90.3425 379.935C89.438 379.935 88.7716 379.768 88.3431 379.435C88.0099 379.102 87.8433 378.293 87.8433 377.007C87.8433 375.722 87.9623 374.746 88.2003 374.08C88.4383 373.366 89.1762 373.009 90.4139 373.009C91.6992 373.009 92.9131 373.318 94.0556 373.937C95.4361 372.89 96.7214 371.271 97.9115 369.081C99.1016 366.892 99.6966 364.63 99.6966 362.298C99.6966 358.918 98.6732 356.442 96.6262 354.872C94.6268 353.301 91.5088 352.515 87.272 352.515C81.1787 352.515 76.1803 353.705 72.2768 356.085C68.4209 358.466 66.493 360.989 66.493 363.654C66.493 364.94 67.0166 366.011 68.0639 366.868C69.1112 367.677 70.1585 368.224 71.2057 368.51C71.0153 370.414 70.4203 372.176 69.4206 373.794C67.564 373.508 65.8265 372.556 64.208 370.938C62.5894 369.272 61.7802 367.034 61.7802 364.226C61.7802 359.561 64.4698 355.728 69.849 352.729C75.2283 349.73 81.8928 348.231 89.8426 348.231C96.2216 348.231 101.268 349.421 104.981 351.801C108.694 354.181 110.55 357.68 110.55 362.298C110.55 365.535 109.336 368.462 106.909 371.081C104.481 373.651 101.553 375.77 98.1257 377.436C98.935 378.245 99.649 379.388 100.268 380.863C100.934 382.339 101.458 383.553 101.839 384.505C102.267 385.409 102.6 386.147 102.838 386.719C103.077 387.29 103.41 388.099 103.838 389.146C105.695 394.192 107.361 397.905 108.837 400.286C110.36 402.713 111.812 403.927 113.192 403.927C113.478 403.927 113.692 403.904 113.835 403.856L114.549 406.427C112.216 408.283 109.551 409.211 106.552 409.211C103.553 409.211 101.434 408.426 100.196 406.855C98.9588 405.332 97.8163 402.166 96.769 397.358C96.6262 396.882 96.2216 395.144 95.5551 392.145C94.2222 385.766 93.1035 381.673 92.199 379.864ZM78.4177 362.726C78.4177 361.631 77.8465 360.441 76.704 359.156L76.7754 358.656C79.2984 357.18 82.4402 356.442 86.2009 356.442C87.6767 356.442 88.7716 356.561 89.4856 356.8C89.7236 357.323 89.8426 358.061 89.8426 359.013C89.8426 361.108 88.6049 367.106 86.1295 377.007C83.7017 386.909 82.2736 394.311 81.8452 399.215C79.0366 400.024 75.9185 400.428 72.491 400.428C71.6818 400.428 71.0867 400.357 70.7059 400.214C70.9439 397.168 72.2768 390.955 74.7046 381.577C77.18 372.152 78.4177 365.868 78.4177 362.726ZM112.106 387.647C112.106 381.696 113.891 377.007 117.462 373.58C121.079 370.105 125.173 368.367 129.743 368.367C132.552 368.367 134.861 369.058 136.67 370.438C138.479 371.819 139.383 373.675 139.383 376.008C139.383 378.293 138.788 380.221 137.598 381.792C136.456 383.362 135.051 384.576 133.385 385.433C130.005 387.099 126.911 388.147 124.102 388.575L122.389 388.789C122.722 393.264 124.555 395.501 127.887 395.501C129.029 395.501 130.243 395.216 131.529 394.645C132.814 394.073 133.814 393.502 134.528 392.931L135.599 392.074L137.312 394.359C136.932 394.883 136.17 395.573 135.027 396.43C133.885 397.287 132.814 398.001 131.814 398.572C129.053 400.095 126.03 400.857 122.746 400.857C119.461 400.857 116.867 399.691 114.962 397.358C113.058 395.025 112.106 391.788 112.106 387.647ZM122.317 385.29C124.745 384.862 126.673 383.838 128.101 382.22C129.529 380.601 130.243 378.507 130.243 375.936C130.243 373.366 129.482 372.08 127.958 372.08C126.149 372.08 124.745 373.627 123.745 376.722C122.793 379.768 122.317 382.625 122.317 385.29ZM142.84 400.214H141.484C141.484 397.977 142.15 393.692 143.483 387.361C144.863 381.03 145.554 377.436 145.554 376.579C145.554 375.008 144.887 373.342 143.554 371.581L142.912 370.724L142.983 369.795C145.554 369.081 149.671 368.724 155.336 368.724C156.003 369.629 156.336 371.104 156.336 373.151C160.62 369.962 164.024 368.367 166.547 368.367C169.736 368.367 171.617 370.01 172.188 373.294C173.473 372.247 175.139 371.176 177.186 370.081C179.281 368.938 181.138 368.367 182.756 368.367C184.422 368.367 185.803 368.915 186.898 370.01C187.992 371.057 188.54 372.533 188.54 374.437C188.54 376.341 188.016 379.483 186.969 383.862C185.922 388.242 185.398 391.193 185.398 392.717C185.398 394.192 185.612 394.93 186.041 394.93C186.326 394.93 187.302 394.478 188.968 393.573L189.754 393.145L191.039 395.644C189.801 396.882 188.111 398.072 185.969 399.215C183.875 400.309 182.018 400.857 180.4 400.857C176.829 400.857 175.044 398.834 175.044 394.787C175.044 393.312 175.544 390.36 176.544 385.933C177.591 381.458 178.115 378.554 178.115 377.222C178.115 375.841 177.71 375.151 176.901 375.151C175.52 375.151 173.949 375.674 172.188 376.722C172.093 377.674 171.426 380.911 170.189 386.433C168.999 391.955 168.403 396.239 168.403 399.286C167.023 399.905 163.786 400.214 158.692 400.214C158.597 399.691 158.549 398.429 158.549 396.43C158.549 394.43 159.097 391.027 160.192 386.219C161.334 381.411 161.906 378.364 161.906 377.079C161.906 375.793 161.453 375.151 160.549 375.151C159.121 375.151 157.55 375.722 155.836 376.865C155.741 377.293 155.265 379.388 154.408 383.148C152.694 390.67 151.837 396.025 151.837 399.215C150.171 399.881 147.172 400.214 142.84 400.214ZM193.065 387.647C193.065 381.696 194.85 377.007 198.421 373.58C202.039 370.105 206.132 368.367 210.702 368.367C213.511 368.367 215.82 369.058 217.629 370.438C219.438 371.819 220.342 373.675 220.342 376.008C220.342 378.293 219.747 380.221 218.557 381.792C217.415 383.362 216.01 384.576 214.344 385.433C210.964 387.099 207.87 388.147 205.061 388.575L203.348 388.789C203.681 393.264 205.514 395.501 208.846 395.501C209.988 395.501 211.202 395.216 212.488 394.645C213.773 394.073 214.773 393.502 215.487 392.931L216.558 392.074L218.271 394.359C217.891 394.883 217.129 395.573 215.986 396.43C214.844 397.287 213.773 398.001 212.773 398.572C210.012 400.095 206.989 400.857 203.705 400.857C200.42 400.857 197.826 399.691 195.921 397.358C194.017 395.025 193.065 391.788 193.065 387.647ZM203.276 385.29C205.704 384.862 207.632 383.838 209.06 382.22C210.488 380.601 211.202 378.507 211.202 375.936C211.202 373.366 210.441 372.08 208.917 372.08C207.108 372.08 205.704 373.627 204.704 376.722C203.752 379.768 203.276 382.625 203.276 385.29ZM223.799 400.214H222.443C222.443 397.977 223.109 393.692 224.442 387.361C225.822 381.03 226.513 377.436 226.513 376.579C226.513 375.008 225.846 373.342 224.513 371.581L223.871 370.724L223.942 369.795C226.513 369.081 230.63 368.724 236.295 368.724C236.962 369.629 237.295 371.104 237.295 373.151C241.579 369.962 244.983 368.367 247.506 368.367C250.695 368.367 252.576 370.01 253.147 373.294C254.432 372.247 256.098 371.176 258.145 370.081C260.24 368.938 262.097 368.367 263.715 368.367C265.381 368.367 266.762 368.915 267.857 370.01C268.952 371.057 269.499 372.533 269.499 374.437C269.499 376.341 268.975 379.483 267.928 383.862C266.881 388.242 266.357 391.193 266.357 392.717C266.357 394.192 266.571 394.93 267 394.93C267.285 394.93 268.261 394.478 269.927 393.573L270.713 393.145L271.998 395.644C270.76 396.882 269.071 398.072 266.928 399.215C264.834 400.309 262.977 400.857 261.359 400.857C257.788 400.857 256.003 398.834 256.003 394.787C256.003 393.312 256.503 390.36 257.503 385.933C258.55 381.458 259.074 378.554 259.074 377.222C259.074 375.841 258.669 375.151 257.86 375.151C256.479 375.151 254.908 375.674 253.147 376.722C253.052 377.674 252.385 380.911 251.148 386.433C249.958 391.955 249.363 396.239 249.363 399.286C247.982 399.905 244.745 400.214 239.651 400.214C239.556 399.691 239.509 398.429 239.509 396.43C239.509 394.43 240.056 391.027 241.151 386.219C242.293 381.411 242.865 378.364 242.865 377.079C242.865 375.793 242.412 375.151 241.508 375.151C240.08 375.151 238.509 375.722 236.795 376.865C236.7 377.293 236.224 379.388 235.367 383.148C233.653 390.67 232.796 396.025 232.796 399.215C231.13 399.881 228.131 400.214 223.799 400.214ZM292.804 350.159C292.804 353.777 291.59 360.87 289.162 371.438C292.019 369.391 294.589 368.367 296.874 368.367C299.207 368.367 301.182 369.343 302.801 371.295C304.467 373.199 305.3 376.127 305.3 380.078C305.3 386.695 303.991 391.812 301.373 395.43C298.802 399.048 295.66 400.857 291.947 400.857C290.567 400.857 289.162 400.69 287.734 400.357C286.354 400.024 285.306 399.667 284.592 399.286L283.521 398.786C280.475 399.833 277.499 400.357 274.596 400.357C274.31 400.119 274.167 398.977 274.167 396.93C274.167 394.835 275.5 387.98 278.166 376.365C280.832 364.702 282.165 356.728 282.165 352.444C282.165 351.682 282.046 350.706 281.808 349.516C285.521 348.231 289.067 347.588 292.447 347.588C292.685 348.255 292.804 349.111 292.804 350.159ZM292.161 374.437C291.257 374.437 289.9 374.865 288.091 375.722C285.901 384.957 284.711 391.574 284.521 395.573C285.949 396.192 287.306 396.501 288.591 396.501C290.4 396.501 291.9 394.835 293.09 391.503C294.327 388.17 294.946 384.505 294.946 380.506C294.946 376.46 294.018 374.437 292.161 374.437ZM308.333 387.647C308.333 381.696 310.118 377.007 313.688 373.58C317.306 370.105 321.4 368.367 325.97 368.367C328.778 368.367 331.087 369.058 332.896 370.438C334.705 371.819 335.61 373.675 335.61 376.008C335.61 378.293 335.014 380.221 333.824 381.792C332.682 383.362 331.278 384.576 329.611 385.433C326.232 387.099 323.137 388.147 320.329 388.575L318.615 388.789C318.948 393.264 320.781 395.501 324.113 395.501C325.256 395.501 326.47 395.216 327.755 394.645C329.04 394.073 330.04 393.502 330.754 392.931L331.825 392.074L333.539 394.359C333.158 394.883 332.396 395.573 331.254 396.43C330.111 397.287 329.04 398.001 328.041 398.572C325.279 400.095 322.257 400.857 318.972 400.857C315.687 400.857 313.093 399.691 311.189 397.358C309.285 395.025 308.333 391.788 308.333 387.647ZM318.544 385.29C320.971 384.862 322.899 383.838 324.327 382.22C325.756 380.601 326.47 378.507 326.47 375.936C326.47 373.366 325.708 372.08 324.185 372.08C322.376 372.08 320.971 373.627 319.972 376.722C319.02 379.768 318.544 382.625 318.544 385.29ZM338.567 400.214H338.067C337.972 399.833 337.924 398.977 337.924 397.644C337.924 396.263 338.567 392.598 339.852 386.647C341.137 380.697 341.78 377.293 341.78 376.436C341.78 374.96 341.114 373.342 339.781 371.581L339.138 370.724L339.209 369.795C341.78 369.081 345.898 368.724 351.563 368.724C352.134 369.962 352.419 371.7 352.419 373.937C352.943 373.08 354.038 371.938 355.704 370.509C357.37 369.081 359.084 368.367 360.845 368.367C363.416 368.367 364.701 370.605 364.701 375.079C364.463 375.365 364.13 375.746 363.702 376.222C363.321 376.65 362.511 377.269 361.274 378.078C360.084 378.888 358.917 379.388 357.775 379.578C357.727 379.578 357.323 378.935 356.561 377.65C355.799 376.365 355.228 375.722 354.847 375.722C353.657 376.15 352.61 376.865 351.705 377.864C349.516 387.718 348.421 394.097 348.421 397.001C348.421 398.048 348.445 398.786 348.492 399.215C346.826 399.881 343.518 400.214 338.567 400.214Z" fill="#735AF3"/>
<path d="M133.051 312.2C132.998 312.2 132.971 312.167 132.971 312.1V297.66C132.971 297.153 132.951 296.687 132.911 296.26C132.885 295.82 132.838 295.533 132.771 295.4C132.745 295.333 132.745 295.287 132.771 295.26C132.811 295.22 132.858 295.2 132.911 295.2C132.991 295.2 133.125 295.207 133.311 295.22C133.511 295.22 133.705 295.227 133.891 295.24C134.078 295.24 134.185 295.24 134.211 295.24C134.278 295.24 134.311 295.293 134.311 295.4C134.271 295.893 134.245 296.327 134.231 296.7C134.231 297.06 134.231 297.48 134.231 297.96V302.64C134.591 302.64 134.978 302.627 135.391 302.6C135.818 302.56 136.211 302.52 136.571 302.48C136.945 302.427 137.225 302.373 137.411 302.32C137.531 302.307 137.598 302.347 137.611 302.44C137.638 302.613 137.658 302.787 137.671 302.96C137.685 303.133 137.698 303.307 137.711 303.48C137.711 303.627 137.651 303.7 137.531 303.7C137.331 303.673 137.038 303.66 136.651 303.66C136.278 303.66 135.878 303.66 135.451 303.66C135.025 303.66 134.618 303.667 134.231 303.68V311.7C134.231 311.9 134.218 312.02 134.191 312.06C134.178 312.1 134.138 312.127 134.071 312.14L133.051 312.2ZM121.531 308.96L121.051 308.52C120.998 308.467 121.018 308.4 121.111 308.32C121.951 307.88 122.785 307.287 123.611 306.54C124.451 305.793 125.225 304.967 125.931 304.06C126.638 303.153 127.225 302.227 127.691 301.28C128.158 300.32 128.445 299.413 128.551 298.56C128.578 298.413 128.518 298.34 128.371 298.34L124.451 298.58L122.371 298.76C122.238 298.773 122.151 298.76 122.111 298.72C122.071 298.667 122.038 298.607 122.011 298.54C121.998 298.527 121.991 298.513 121.991 298.5C121.938 298.353 121.898 298.233 121.871 298.14C121.845 298.033 121.805 297.867 121.751 297.64C121.738 297.613 121.745 297.58 121.771 297.54C121.798 297.5 121.845 297.487 121.911 297.5C122.498 297.553 123.151 297.58 123.871 297.58C124.605 297.567 125.338 297.54 126.071 297.5C126.805 297.447 127.465 297.387 128.051 297.32C128.211 297.307 128.385 297.28 128.571 297.24C128.758 297.2 128.851 297.18 128.851 297.18C128.918 297.153 128.991 297.153 129.071 297.18L130.171 297.54C130.278 297.593 130.325 297.68 130.311 297.8L129.851 299.28C129.665 299.867 129.371 300.567 128.971 301.38C128.571 302.193 128.058 303.053 127.431 303.96C126.805 304.853 126.051 305.733 125.171 306.6C124.305 307.467 123.305 308.253 122.171 308.96C122.065 309.027 121.958 309.067 121.851 309.08C121.745 309.093 121.638 309.053 121.531 308.96ZM142.734 302.5C142.734 302.5 142.721 302.507 142.694 302.52C142.614 302.547 142.514 302.573 142.394 302.6C142.274 302.613 142.161 302.547 142.054 302.4L141.634 301.84C141.594 301.773 141.588 301.733 141.614 301.72C141.654 301.693 141.694 301.673 141.734 301.66C141.748 301.66 141.754 301.66 141.754 301.66C142.674 301.393 143.548 301.013 144.374 300.52C145.201 300.027 145.894 299.46 146.454 298.82C147.028 298.18 147.394 297.52 147.554 296.84L146.034 296.9C145.821 296.913 145.514 296.933 145.114 296.96C144.714 296.987 144.314 297.013 143.914 297.04C143.528 297.053 143.221 297.073 142.994 297.1C142.848 297.127 142.754 297.113 142.714 297.06C142.674 297.007 142.634 296.94 142.594 296.86C142.594 296.847 142.594 296.84 142.594 296.84C142.541 296.693 142.501 296.567 142.474 296.46C142.448 296.353 142.408 296.187 142.354 295.96C142.341 295.933 142.348 295.9 142.374 295.86C142.401 295.82 142.448 295.807 142.514 295.82C142.848 295.847 143.328 295.873 143.954 295.9C144.581 295.913 145.288 295.92 146.074 295.92C146.861 295.907 147.668 295.887 148.494 295.86C149.334 295.833 150.134 295.793 150.894 295.74C151.654 295.673 152.308 295.593 152.854 295.5C152.894 295.487 152.941 295.493 152.994 295.52C153.048 295.533 153.081 295.573 153.094 295.64C153.148 295.947 153.188 296.273 153.214 296.62C153.214 296.767 153.134 296.84 152.974 296.84L150.514 296.82H149.054C148.854 297.407 148.594 297.953 148.274 298.46C149.261 298.753 150.214 299.093 151.134 299.48C152.068 299.853 152.861 300.207 153.514 300.54C153.581 300.58 153.648 300.633 153.714 300.7C153.794 300.767 153.821 300.853 153.794 300.96C153.728 301.107 153.648 301.267 153.554 301.44C153.474 301.6 153.381 301.767 153.274 301.94C153.234 302.047 153.174 302.06 153.094 301.98C152.814 301.78 152.454 301.547 152.014 301.28C151.588 301.013 151.121 300.747 150.614 300.48C150.108 300.213 149.601 299.973 149.094 299.76C148.601 299.533 148.141 299.353 147.714 299.22C147.128 299.927 146.408 300.553 145.554 301.1C144.714 301.633 143.774 302.1 142.734 302.5ZM140.014 305.58C139.868 305.593 139.768 305.58 139.714 305.54C139.661 305.5 139.621 305.44 139.594 305.36C139.541 305.213 139.494 305.067 139.454 304.92C139.414 304.773 139.368 304.587 139.314 304.36C139.301 304.333 139.308 304.3 139.334 304.26C139.361 304.207 139.408 304.187 139.474 304.2C139.981 304.267 140.674 304.32 141.554 304.36C142.434 304.387 143.401 304.393 144.454 304.38C144.921 304.38 145.401 304.38 145.894 304.38C146.388 304.367 146.888 304.353 147.394 304.34V303.58C147.394 303.06 147.374 302.633 147.334 302.3C147.294 301.967 147.248 301.733 147.194 301.6C147.141 301.467 147.188 301.4 147.334 301.4H148.534C148.614 301.4 148.654 301.453 148.654 301.56C148.654 301.573 148.654 301.587 148.654 301.6C148.641 301.893 148.628 302.18 148.614 302.46C148.601 302.727 148.588 303.053 148.574 303.44L148.554 304.32C149.608 304.28 150.628 304.24 151.614 304.2C152.614 304.147 153.501 304.093 154.274 304.04C155.061 303.973 155.654 303.907 156.054 303.84C156.188 303.813 156.274 303.82 156.314 303.86C156.354 303.9 156.381 303.953 156.394 304.02L156.514 304.9C156.528 305.087 156.401 305.173 156.134 305.16C155.721 305.133 155.161 305.12 154.454 305.12C153.761 305.12 153.008 305.127 152.194 305.14C151.474 305.14 150.734 305.153 149.974 305.18C149.228 305.193 148.521 305.207 147.854 305.22C147.201 305.233 146.634 305.247 146.154 305.26C144.808 305.3 143.594 305.347 142.514 305.4C141.434 305.453 140.601 305.513 140.014 305.58ZM151.814 313.6C151.761 313.6 151.734 313.567 151.734 313.5V308.78C151.734 308.633 151.654 308.56 151.494 308.56C151.201 308.56 150.768 308.567 150.194 308.58C149.634 308.593 149.034 308.613 148.394 308.64C147.768 308.667 147.174 308.693 146.614 308.72C146.068 308.733 145.654 308.747 145.374 308.76C145.041 308.787 144.674 308.813 144.274 308.84C143.888 308.853 143.528 308.873 143.194 308.9C143.048 308.913 142.954 308.893 142.914 308.84C142.874 308.787 142.841 308.72 142.814 308.64L142.614 307.8C142.601 307.773 142.608 307.74 142.634 307.7C142.661 307.66 142.708 307.647 142.774 307.66C142.961 307.687 143.274 307.707 143.714 307.72C144.154 307.733 144.668 307.74 145.254 307.74C145.841 307.74 146.454 307.733 147.094 307.72C147.734 307.707 148.354 307.687 148.954 307.66C149.568 307.633 150.108 307.6 150.574 307.56C151.041 307.52 151.388 307.473 151.614 307.42C151.628 307.42 151.648 307.413 151.674 307.4C151.701 307.4 151.728 307.4 151.754 307.4C151.781 307.387 151.828 307.387 151.894 307.4C152.068 307.427 152.248 307.453 152.434 307.48C152.621 307.507 152.808 307.54 152.994 307.58C153.074 307.593 153.114 307.653 153.114 307.76C153.088 308.147 153.061 308.54 153.034 308.94C153.021 309.327 153.014 309.68 153.014 310L152.994 313.2C152.994 313.32 152.974 313.4 152.934 313.44C152.894 313.48 152.821 313.513 152.714 313.54C152.648 313.54 152.494 313.547 152.254 313.56C152.028 313.587 151.881 313.6 151.814 313.6ZM163.974 313.2C163.56 313.187 163.24 313.053 163.014 312.8C162.8 312.547 162.694 312.133 162.694 311.56V310.74C162.694 310.327 162.62 309.92 162.474 309.52C162.447 309.48 162.454 309.427 162.494 309.36C162.534 309.293 162.6 309.267 162.694 309.28C162.84 309.293 163.154 309.307 163.634 309.32C164.127 309.333 164.707 309.34 165.374 309.34C166.04 309.34 166.72 309.333 167.414 309.32C168.12 309.307 168.767 309.287 169.354 309.26C169.954 309.233 170.414 309.2 170.734 309.16L170.774 307.64C170.774 307.493 170.707 307.42 170.574 307.42C170.28 307.42 169.874 307.427 169.354 307.44C168.834 307.453 168.28 307.467 167.694 307.48C167.107 307.493 166.547 307.513 166.014 307.54C165.48 307.553 165.047 307.567 164.714 307.58L162.934 307.66C162.814 307.673 162.727 307.667 162.674 307.64C162.62 307.6 162.58 307.52 162.554 307.4L162.414 306.7C162.4 306.673 162.407 306.64 162.434 306.6C162.46 306.56 162.507 306.547 162.574 306.56C162.787 306.573 163.134 306.587 163.614 306.6C164.094 306.613 164.64 306.627 165.254 306.64C165.88 306.64 166.527 306.633 167.194 306.62C167.86 306.593 168.5 306.567 169.114 306.54C169.74 306.5 170.28 306.447 170.734 306.38C170.76 306.38 170.787 306.373 170.814 306.36C170.907 306.347 170.98 306.347 171.034 306.36L172.054 306.5C172.134 306.513 172.174 306.573 172.174 306.68C172.107 307.267 172.054 307.793 172.014 308.26C171.987 308.713 171.954 309.233 171.914 309.82C171.9 309.953 171.874 310.04 171.834 310.08C171.794 310.12 171.714 310.14 171.594 310.14C171.14 310.14 170.58 310.147 169.914 310.16C169.26 310.16 168.567 310.167 167.834 310.18C167.1 310.18 166.394 310.187 165.714 310.2C165.034 310.213 164.447 310.233 163.954 310.26V311.48C163.954 311.787 163.974 311.973 164.014 312.04C164.054 312.12 164.187 312.167 164.414 312.18C165.28 312.207 166.187 312.213 167.134 312.2C168.08 312.187 168.987 312.153 169.854 312.1C170.414 312.073 170.92 312.033 171.374 311.98C171.827 311.927 172.22 311.86 172.554 311.78C172.687 311.753 172.774 311.76 172.814 311.8C172.854 311.84 172.88 311.893 172.894 311.96L173.014 312.84C173.014 312.907 172.987 312.967 172.934 313.02C172.894 313.073 172.78 313.1 172.594 313.1C171.18 313.1 169.72 313.107 168.214 313.12C166.707 313.147 165.294 313.173 163.974 313.2ZM163.394 301.2C162.927 301.213 162.6 301.087 162.414 300.82C162.227 300.553 162.134 300.1 162.134 299.46V297.64C162.134 297.173 162.1 296.8 162.034 296.52C161.967 296.24 161.9 296.033 161.834 295.9C161.794 295.82 161.794 295.753 161.834 295.7C161.874 295.633 161.927 295.6 161.994 295.6C162.087 295.6 162.254 295.607 162.494 295.62C162.734 295.633 162.987 295.647 163.254 295.66C163.88 295.66 164.694 295.653 165.694 295.64C166.694 295.627 167.714 295.593 168.754 295.54C169.46 295.513 170.047 295.48 170.514 295.44C170.98 295.4 171.387 295.353 171.734 295.3C171.774 295.287 171.82 295.293 171.874 295.32C171.927 295.333 171.96 295.373 171.974 295.44C172.014 295.707 172.04 295.9 172.054 296.02C172.067 296.127 172.074 296.207 172.074 296.26C172.1 296.407 172.02 296.48 171.834 296.48C171.46 296.48 171.094 296.48 170.734 296.48C170.374 296.48 170 296.487 169.614 296.5L163.394 296.68V299.18C163.394 299.58 163.427 299.847 163.494 299.98C163.56 300.1 163.7 300.167 163.914 300.18C164.367 300.193 164.887 300.2 165.474 300.2C166.074 300.187 166.654 300.167 167.214 300.14C167.787 300.113 168.247 300.093 168.594 300.08C169.314 300.053 169.96 300.02 170.534 299.98C171.107 299.927 171.56 299.867 171.894 299.8C172.027 299.773 172.114 299.78 172.154 299.82C172.194 299.847 172.22 299.893 172.234 299.96C172.26 300.12 172.28 300.273 172.294 300.42C172.307 300.567 172.314 300.713 172.314 300.86C172.314 300.94 172.287 300.993 172.234 301.02C172.194 301.047 172.08 301.06 171.894 301.06C170.48 301.06 169.087 301.08 167.714 301.12C166.354 301.147 164.914 301.173 163.394 301.2ZM159.214 304.74C159.067 304.753 158.967 304.74 158.914 304.7C158.86 304.66 158.82 304.6 158.794 304.52C158.74 304.373 158.694 304.227 158.654 304.08C158.614 303.933 158.567 303.747 158.514 303.52C158.5 303.493 158.507 303.46 158.534 303.42C158.56 303.367 158.607 303.347 158.674 303.36C159.18 303.427 159.874 303.48 160.754 303.52C161.634 303.547 162.6 303.553 163.654 303.54C164.467 303.54 165.334 303.533 166.254 303.52C167.174 303.493 168.087 303.467 168.994 303.44C169.914 303.4 170.78 303.36 171.594 303.32C172.42 303.28 173.147 303.233 173.774 303.18C174.414 303.127 174.907 303.067 175.254 303C175.387 302.973 175.474 302.98 175.514 303.02C175.554 303.06 175.58 303.113 175.594 303.18L175.714 304.06C175.727 304.247 175.6 304.333 175.334 304.32C174.92 304.293 174.36 304.28 173.654 304.28C172.96 304.28 172.207 304.287 171.394 304.3C170.674 304.3 169.934 304.313 169.174 304.34C168.427 304.353 167.72 304.367 167.054 304.38C166.4 304.393 165.834 304.407 165.354 304.42C164.007 304.46 162.794 304.507 161.714 304.56C160.634 304.613 159.8 304.673 159.214 304.74ZM190.153 312.2C190.1 312.2 190.073 312.167 190.073 312.1V297.66C190.073 297.153 190.053 296.687 190.013 296.26C189.986 295.82 189.94 295.533 189.873 295.4C189.846 295.333 189.846 295.287 189.873 295.26C189.913 295.22 189.96 295.2 190.013 295.2C190.093 295.2 190.226 295.207 190.413 295.22C190.613 295.22 190.806 295.227 190.993 295.24C191.18 295.24 191.286 295.24 191.313 295.24C191.38 295.24 191.413 295.293 191.413 295.4C191.373 295.893 191.346 296.327 191.333 296.7C191.333 297.06 191.333 297.48 191.333 297.96V303.14C191.693 303.14 192.08 303.127 192.493 303.1C192.92 303.06 193.313 303.02 193.673 302.98C194.046 302.927 194.326 302.873 194.513 302.82C194.633 302.807 194.7 302.847 194.713 302.94C194.74 303.113 194.76 303.287 194.773 303.46C194.786 303.633 194.8 303.807 194.813 303.98C194.813 304.127 194.753 304.2 194.633 304.2C194.406 304.173 194.086 304.16 193.673 304.16C193.26 304.16 192.826 304.167 192.373 304.18C192.186 304.18 192.006 304.18 191.833 304.18C191.66 304.18 191.493 304.18 191.333 304.18V311.7C191.333 311.9 191.32 312.02 191.293 312.06C191.28 312.1 191.24 312.127 191.173 312.14L190.153 312.2ZM178.173 308.08C178.026 308.093 177.933 308.087 177.893 308.06C177.853 308.033 177.813 307.96 177.773 307.84C177.72 307.693 177.673 307.56 177.633 307.44C177.606 307.307 177.566 307.127 177.513 306.9C177.5 306.873 177.506 306.84 177.533 306.8C177.56 306.76 177.606 306.747 177.673 306.76C177.9 306.8 178.353 306.827 179.033 306.84C179.726 306.84 180.56 306.827 181.533 306.8V303.6C181.533 303.24 181.513 302.893 181.473 302.56C181.446 302.227 181.406 301.993 181.353 301.86C181.3 301.727 181.346 301.66 181.493 301.66C181.56 301.66 181.68 301.667 181.853 301.68C182.04 301.68 182.22 301.687 182.393 301.7C182.566 301.7 182.666 301.7 182.693 301.7C182.746 301.713 182.773 301.767 182.773 301.86C182.773 301.873 182.773 301.887 182.773 301.9C182.746 302.247 182.733 302.58 182.733 302.9C182.733 303.22 182.726 303.553 182.713 303.9L182.653 306.76C183.346 306.72 184.086 306.66 184.873 306.58C185.66 306.5 186.433 306.393 187.193 306.26C187.953 306.127 188.64 305.973 189.253 305.8C189.346 305.76 189.406 305.793 189.433 305.9L189.533 306.46C189.56 306.58 189.546 306.66 189.493 306.7C189.453 306.74 189.393 306.773 189.313 306.8C189.033 306.893 188.593 306.993 187.993 307.1C187.393 307.207 186.726 307.313 185.993 307.42C185.26 307.527 184.526 307.62 183.793 307.7C183.073 307.767 182.44 307.813 181.893 307.84C181.173 307.88 180.48 307.92 179.813 307.96C179.16 308 178.613 308.04 178.173 308.08ZM185.673 304.4C185.633 304.4 185.593 304.393 185.553 304.38C185.526 304.353 185.526 304.293 185.553 304.2C185.713 303.533 185.853 302.82 185.973 302.06C186.106 301.3 186.206 300.58 186.273 299.9C186.34 299.207 186.373 298.653 186.373 298.24C186.373 298.147 186.36 298.087 186.333 298.06C186.306 298.033 186.24 298.02 186.133 298.02C185.746 298.02 185.293 298.033 184.773 298.06C184.253 298.087 183.733 298.12 183.213 298.16C182.706 298.187 182.26 298.213 181.873 298.24C181.54 298.267 181.16 298.293 180.733 298.32C180.306 298.347 179.926 298.38 179.593 298.42C179.46 298.447 179.373 298.44 179.333 298.4C179.293 298.347 179.26 298.28 179.233 298.2C179.22 298.187 179.213 298.173 179.213 298.16C179.16 298.013 179.12 297.893 179.093 297.8C179.066 297.693 179.026 297.527 178.973 297.3C178.96 297.273 178.966 297.24 178.993 297.2C179.02 297.16 179.066 297.147 179.133 297.16C179.64 297.2 180.213 297.22 180.853 297.22C181.506 297.22 182.173 297.207 182.853 297.18C183.533 297.14 184.18 297.093 184.793 297.04C185.406 296.987 185.926 296.927 186.353 296.86C186.406 296.833 186.453 296.827 186.493 296.84C186.533 296.84 186.566 296.84 186.593 296.84C186.62 296.853 186.64 296.86 186.653 296.86L187.853 297.12C187.973 297.133 188.02 297.207 187.993 297.34L187.693 298.88C187.64 299.16 187.58 299.52 187.513 299.96C187.446 300.387 187.373 300.84 187.293 301.32C187.213 301.787 187.133 302.24 187.053 302.68C186.973 303.107 186.886 303.467 186.793 303.76C186.726 304 186.66 304.153 186.593 304.22C186.526 304.273 186.46 304.307 186.393 304.32C186.286 304.347 186.166 304.367 186.033 304.38C185.913 304.38 185.793 304.387 185.673 304.4ZM202.101 303.94C201.301 303.953 200.561 303.813 199.881 303.52C199.215 303.213 198.681 302.78 198.281 302.22C197.881 301.66 197.681 301.013 197.681 300.28C197.681 299.56 197.881 298.92 198.281 298.36C198.695 297.787 199.235 297.333 199.901 297C200.581 296.653 201.321 296.473 202.121 296.46C202.921 296.433 203.655 296.567 204.321 296.86C205.001 297.14 205.541 297.56 205.941 298.12C206.355 298.667 206.561 299.333 206.561 300.12C206.561 300.827 206.355 301.467 205.941 302.04C205.528 302.613 204.981 303.067 204.301 303.4C203.635 303.733 202.901 303.913 202.101 303.94ZM202.121 302.94C203.028 302.9 203.768 302.64 204.341 302.16C204.928 301.667 205.221 300.987 205.221 300.12C205.221 299.2 204.928 298.52 204.341 298.08C203.755 297.64 203.008 297.433 202.101 297.46C201.195 297.513 200.441 297.78 199.841 298.26C199.241 298.74 198.941 299.407 198.941 300.26C198.941 301.14 199.241 301.813 199.841 302.28C200.455 302.747 201.215 302.967 202.121 302.94ZM209.461 312.2C209.408 312.2 209.381 312.167 209.381 312.1V297.66C209.381 297.153 209.361 296.687 209.321 296.26C209.295 295.82 209.248 295.533 209.181 295.4C209.155 295.333 209.155 295.287 209.181 295.26C209.221 295.22 209.268 295.2 209.321 295.2C209.401 295.2 209.535 295.207 209.721 295.22C209.921 295.22 210.115 295.227 210.301 295.24C210.488 295.24 210.595 295.24 210.621 295.24C210.688 295.24 210.721 295.293 210.721 295.4C210.681 295.893 210.655 296.327 210.641 296.7C210.641 297.06 210.641 297.48 210.641 297.96V311.7C210.641 311.9 210.628 312.02 210.601 312.06C210.588 312.1 210.548 312.127 210.481 312.14L209.461 312.2ZM196.981 308.28C196.835 308.293 196.741 308.287 196.701 308.26C196.661 308.233 196.621 308.16 196.581 308.04C196.528 307.893 196.481 307.76 196.441 307.64C196.415 307.507 196.375 307.327 196.321 307.1C196.308 307.073 196.315 307.04 196.341 307C196.368 306.96 196.415 306.947 196.481 306.96C196.748 307.013 197.241 307.04 197.961 307.04C198.695 307.04 199.495 307.027 200.361 307C200.895 306.987 201.508 306.96 202.201 306.92C202.908 306.867 203.635 306.8 204.381 306.72C205.141 306.64 205.868 306.54 206.561 306.42C207.268 306.3 207.895 306.16 208.441 306C208.535 305.96 208.595 305.993 208.621 306.1L208.721 306.66C208.748 306.78 208.735 306.86 208.681 306.9C208.641 306.94 208.581 306.973 208.501 307C208.275 307.067 207.928 307.147 207.461 307.24C207.008 307.32 206.481 307.407 205.881 307.5C205.295 307.58 204.681 307.66 204.041 307.74C203.415 307.807 202.808 307.867 202.221 307.92C201.635 307.973 201.121 308.013 200.681 308.04C199.961 308.08 199.275 308.12 198.621 308.16C197.968 308.2 197.421 308.24 196.981 308.28ZM223.911 303.82C223.804 303.86 223.691 303.873 223.571 303.86C223.464 303.847 223.371 303.78 223.291 303.66L222.951 303.18C222.911 303.113 222.904 303.073 222.931 303.06C222.971 303.033 223.011 303.013 223.051 303C223.064 303 223.071 303 223.071 303C224.631 302.467 225.877 301.86 226.811 301.18C227.757 300.5 228.344 299.707 228.571 298.8L227.031 298.88C226.817 298.893 226.511 298.913 226.111 298.94C225.711 298.967 225.311 298.993 224.911 299.02C224.511 299.047 224.204 299.073 223.991 299.1C223.857 299.127 223.771 299.12 223.731 299.08C223.691 299.027 223.657 298.96 223.631 298.88C223.617 298.867 223.611 298.853 223.611 298.84C223.557 298.693 223.517 298.567 223.491 298.46C223.464 298.353 223.424 298.193 223.371 297.98C223.357 297.953 223.364 297.92 223.391 297.88C223.417 297.84 223.464 297.827 223.531 297.84C223.904 297.867 224.411 297.887 225.051 297.9C225.691 297.913 226.404 297.913 227.191 297.9C227.977 297.873 228.784 297.84 229.611 297.8C230.451 297.76 231.257 297.707 232.031 297.64C232.804 297.573 233.477 297.493 234.051 297.4C234.091 297.387 234.137 297.387 234.191 297.4C234.244 297.413 234.277 297.453 234.291 297.52C234.304 297.6 234.317 297.693 234.331 297.8C234.357 297.907 234.377 298.013 234.391 298.12L234.431 298.5C234.457 298.647 234.377 298.72 234.191 298.72L231.611 298.7C231.411 298.7 231.164 298.707 230.871 298.72C230.591 298.72 230.297 298.727 229.991 298.74C229.924 298.993 229.837 299.24 229.731 299.48C229.637 299.707 229.517 299.927 229.371 300.14C229.891 300.313 230.471 300.513 231.111 300.74C231.751 300.967 232.357 301.193 232.931 301.42C233.517 301.633 233.971 301.82 234.291 301.98C234.384 302.02 234.464 302.08 234.531 302.16C234.597 302.24 234.604 302.333 234.551 302.44C234.484 302.573 234.404 302.713 234.311 302.86C234.231 303.007 234.137 303.16 234.031 303.32C233.951 303.413 233.871 303.42 233.791 303.34C233.417 303.047 232.937 302.747 232.351 302.44C231.777 302.12 231.171 301.82 230.531 301.54C229.904 301.26 229.331 301.04 228.811 300.88C228.277 301.48 227.597 302.013 226.771 302.48C225.957 302.947 225.004 303.393 223.911 303.82ZM228.451 312.24C228.397 312.24 228.371 312.207 228.371 312.14V306.28C226.771 306.307 225.317 306.353 224.011 306.42C222.704 306.473 221.677 306.533 220.931 306.6C220.784 306.613 220.684 306.6 220.631 306.56C220.577 306.52 220.537 306.46 220.511 306.38C220.457 306.233 220.411 306.087 220.371 305.94C220.331 305.78 220.284 305.587 220.231 305.36C220.217 305.333 220.224 305.3 220.251 305.26C220.277 305.207 220.324 305.187 220.391 305.2C220.897 305.267 221.584 305.313 222.451 305.34C223.331 305.353 224.297 305.36 225.351 305.36C226.377 305.36 227.457 305.347 228.591 305.32C229.737 305.293 230.851 305.26 231.931 305.22C233.011 305.18 233.971 305.127 234.811 305.06C235.664 304.993 236.311 304.92 236.751 304.84C236.884 304.813 236.971 304.82 237.011 304.86C237.051 304.9 237.077 304.953 237.091 305.02L237.211 305.98C237.211 306.047 237.191 306.107 237.151 306.16C237.111 306.213 237.004 306.24 236.831 306.24C236.377 306.227 235.851 306.22 235.251 306.22C234.651 306.22 234.011 306.22 233.331 306.22C232.704 306.22 232.084 306.227 231.471 306.24C230.857 306.24 230.251 306.247 229.651 306.26V311.74C229.651 311.94 229.637 312.06 229.611 312.1C229.597 312.14 229.557 312.167 229.491 312.18C229.437 312.18 229.337 312.18 229.191 312.18C229.044 312.193 228.897 312.207 228.751 312.22C228.604 312.233 228.504 312.24 228.451 312.24ZM228.191 296.5C227.951 296.473 227.664 296.447 227.331 296.42C226.997 296.38 226.671 296.32 226.351 296.24C226.044 296.16 225.797 296.06 225.611 295.94C225.571 295.9 225.557 295.813 225.571 295.68C225.584 295.547 225.617 295.42 225.671 295.3C225.724 295.18 225.784 295.133 225.851 295.16C226.544 295.28 227.257 295.353 227.991 295.38C228.724 295.393 229.411 295.387 230.051 295.36C230.691 295.32 231.224 295.28 231.651 295.24H231.671C231.777 295.227 231.844 295.233 231.871 295.26C231.897 295.273 231.917 295.313 231.931 295.38C231.931 295.393 231.931 295.427 231.931 295.48C231.931 295.613 231.924 295.773 231.911 295.96C231.911 296.147 231.871 296.253 231.791 296.28C231.737 296.307 231.577 296.34 231.311 296.38C231.057 296.407 230.744 296.433 230.371 296.46C230.011 296.487 229.637 296.507 229.251 296.52C228.864 296.533 228.511 296.527 228.191 296.5ZM243.699 304.04C242.939 304.053 242.239 303.907 241.599 303.6C240.972 303.293 240.466 302.86 240.079 302.3C239.706 301.727 239.519 301.067 239.519 300.32C239.519 299.6 239.706 298.953 240.079 298.38C240.466 297.793 240.972 297.327 241.599 296.98C242.239 296.633 242.946 296.453 243.719 296.44C244.479 296.4 245.172 296.527 245.799 296.82C246.439 297.113 246.952 297.547 247.339 298.12C247.726 298.68 247.919 299.36 247.919 300.16C247.919 300.893 247.726 301.553 247.339 302.14C246.952 302.713 246.439 303.167 245.799 303.5C245.159 303.833 244.459 304.013 243.699 304.04ZM243.719 303.02C244.519 302.993 245.192 302.727 245.739 302.22C246.286 301.7 246.559 301.013 246.559 300.16C246.559 299.213 246.279 298.52 245.719 298.08C245.172 297.64 244.499 297.433 243.699 297.46C242.886 297.513 242.206 297.787 241.659 298.28C241.112 298.773 240.839 299.447 240.839 300.3C240.839 301.193 241.112 301.88 241.659 302.36C242.219 302.827 242.906 303.047 243.719 303.02ZM251.879 313.5C251.826 313.5 251.799 313.467 251.799 313.4V308.14C251.799 308.047 251.786 307.987 251.759 307.96C251.746 307.933 251.679 307.92 251.559 307.92C251.252 307.92 250.826 307.927 250.279 307.94C249.732 307.953 249.152 307.973 248.539 308C247.926 308.013 247.346 308.033 246.799 308.06C246.266 308.073 245.859 308.087 245.579 308.1C245.246 308.127 244.879 308.153 244.479 308.18C244.092 308.207 243.732 308.233 243.399 308.26C243.266 308.273 243.179 308.26 243.139 308.22C243.099 308.167 243.066 308.107 243.039 308.04C243.026 308.027 243.019 308.013 243.019 308L242.819 307.14C242.806 307.113 242.812 307.08 242.839 307.04C242.866 307 242.912 306.987 242.979 307C243.192 307.027 243.579 307.047 244.139 307.06C244.712 307.073 245.366 307.08 246.099 307.08C246.832 307.067 247.572 307.047 248.319 307.02C249.066 306.993 249.739 306.96 250.339 306.92C250.939 306.867 251.372 306.807 251.639 306.74C251.652 306.74 251.672 306.733 251.699 306.72C251.726 306.72 251.752 306.72 251.779 306.72C251.806 306.707 251.852 306.707 251.919 306.72L253.099 306.9C253.166 306.913 253.199 306.94 253.199 306.98C253.212 307.007 253.219 307.033 253.219 307.06C253.219 307.073 253.219 307.08 253.219 307.08C253.179 307.453 253.146 307.833 253.119 308.22C253.106 308.607 253.099 308.96 253.099 309.28L253.079 313.12C253.079 313.28 253.046 313.373 252.979 313.4C252.926 313.427 252.866 313.447 252.799 313.46L251.879 313.5ZM251.959 305.58C251.906 305.58 251.879 305.547 251.879 305.48V300.46C251.599 300.473 251.266 300.493 250.879 300.52C250.492 300.547 250.126 300.573 249.779 300.6C249.432 300.627 249.152 300.653 248.939 300.68C248.792 300.693 248.692 300.687 248.639 300.66C248.586 300.62 248.546 300.56 248.519 300.48C248.466 300.293 248.419 300.127 248.379 299.98C248.352 299.833 248.326 299.7 248.299 299.58C248.272 299.473 248.326 299.433 248.459 299.46C248.659 299.487 248.946 299.507 249.319 299.52C249.706 299.52 250.126 299.52 250.579 299.52C251.032 299.507 251.466 299.487 251.879 299.46V297.64C251.879 297.133 251.859 296.667 251.819 296.24C251.792 295.813 251.746 295.533 251.679 295.4C251.652 295.333 251.652 295.287 251.679 295.26C251.719 295.22 251.766 295.2 251.819 295.2C251.952 295.2 252.146 295.2 252.399 295.2C252.666 295.2 252.906 295.207 253.119 295.22C253.186 295.22 253.219 295.273 253.219 295.38C253.179 295.873 253.152 296.307 253.139 296.68C253.139 297.04 253.139 297.46 253.139 297.94V305.08C253.139 305.28 253.126 305.4 253.099 305.44C253.086 305.48 253.046 305.507 252.979 305.52L251.959 305.58ZM265.297 302.08C264.457 302.093 263.69 301.967 262.997 301.7C262.317 301.433 261.77 301.04 261.357 300.52C260.957 299.987 260.757 299.36 260.757 298.64C260.757 297.96 260.957 297.36 261.357 296.84C261.77 296.307 262.323 295.887 263.017 295.58C263.71 295.273 264.477 295.113 265.317 295.1C266.17 295.073 266.943 295.193 267.637 295.46C268.33 295.713 268.877 296.093 269.277 296.6C269.69 297.107 269.883 297.733 269.857 298.48C269.843 299.187 269.637 299.807 269.237 300.34C268.837 300.873 268.297 301.293 267.617 301.6C266.95 301.893 266.177 302.053 265.297 302.08ZM262.177 313.26C261.763 313.247 261.443 313.113 261.217 312.86C261.003 312.607 260.897 312.193 260.897 311.62V310.8C260.897 310.387 260.823 309.98 260.677 309.58C260.65 309.54 260.657 309.487 260.697 309.42C260.737 309.353 260.803 309.327 260.897 309.34C261.043 309.353 261.357 309.367 261.837 309.38C262.33 309.393 262.91 309.4 263.577 309.4C264.243 309.4 264.923 309.393 265.617 309.38C266.323 309.367 266.97 309.347 267.557 309.32C268.157 309.293 268.617 309.26 268.937 309.22L268.977 307.7C268.977 307.553 268.91 307.48 268.777 307.48C268.483 307.48 268.077 307.487 267.557 307.5C267.037 307.513 266.483 307.527 265.897 307.54C265.31 307.553 264.75 307.573 264.217 307.6C263.683 307.613 263.25 307.627 262.917 307.64L261.137 307.72C261.017 307.733 260.93 307.727 260.877 307.7C260.823 307.66 260.783 307.58 260.757 307.46L260.617 306.76C260.603 306.733 260.61 306.7 260.637 306.66C260.663 306.62 260.71 306.607 260.777 306.62C260.99 306.633 261.337 306.647 261.817 306.66C262.297 306.673 262.843 306.687 263.457 306.7C264.083 306.7 264.73 306.693 265.397 306.68C266.063 306.653 266.703 306.627 267.317 306.6C267.943 306.56 268.483 306.507 268.937 306.44C268.963 306.44 268.99 306.433 269.017 306.42C269.11 306.407 269.183 306.407 269.237 306.42L270.257 306.56C270.337 306.573 270.377 306.633 270.377 306.74C270.31 307.327 270.257 307.853 270.217 308.32C270.19 308.773 270.157 309.293 270.117 309.88C270.103 310.013 270.077 310.1 270.037 310.14C269.997 310.18 269.917 310.2 269.797 310.2C269.343 310.2 268.783 310.207 268.117 310.22C267.463 310.22 266.77 310.227 266.037 310.24C265.303 310.24 264.597 310.247 263.917 310.26C263.237 310.273 262.65 310.293 262.157 310.32V311.54C262.157 311.847 262.177 312.033 262.217 312.1C262.257 312.18 262.39 312.227 262.617 312.24C263.483 312.267 264.39 312.273 265.337 312.26C266.283 312.247 267.19 312.213 268.057 312.16C268.617 312.133 269.123 312.093 269.577 312.04C270.03 311.987 270.423 311.92 270.757 311.84C270.89 311.813 270.977 311.82 271.017 311.86C271.057 311.9 271.083 311.953 271.097 312.02L271.217 312.9C271.217 312.967 271.19 313.027 271.137 313.08C271.097 313.133 270.983 313.16 270.797 313.16C269.383 313.16 267.923 313.167 266.417 313.18C264.91 313.207 263.497 313.233 262.177 313.26ZM265.317 301.1C266.277 301.073 267.043 300.833 267.617 300.38C268.203 299.913 268.51 299.273 268.537 298.46C268.563 297.633 268.263 297.013 267.637 296.6C267.023 296.187 266.243 295.993 265.297 296.02C264.363 296.047 263.583 296.3 262.957 296.78C262.343 297.247 262.037 297.853 262.037 298.6C262.037 299.427 262.337 300.06 262.937 300.5C263.55 300.927 264.343 301.127 265.317 301.1ZM257.417 304.98C257.27 304.993 257.17 304.98 257.117 304.94C257.063 304.9 257.023 304.84 256.997 304.76C256.943 304.613 256.897 304.467 256.857 304.32C256.817 304.173 256.77 303.987 256.717 303.76C256.703 303.733 256.71 303.7 256.737 303.66C256.763 303.607 256.81 303.587 256.877 303.6C257.383 303.667 258.077 303.72 258.957 303.76C259.837 303.787 260.803 303.793 261.857 303.78C262.67 303.78 263.537 303.773 264.457 303.76C265.377 303.733 266.29 303.707 267.197 303.68C268.117 303.64 268.983 303.6 269.797 303.56C270.623 303.52 271.35 303.473 271.977 303.42C272.617 303.367 273.11 303.307 273.457 303.24C273.59 303.213 273.677 303.22 273.717 303.26C273.757 303.3 273.783 303.353 273.797 303.42L273.917 304.3C273.93 304.487 273.803 304.573 273.537 304.56C273.123 304.533 272.563 304.52 271.857 304.52C271.163 304.52 270.41 304.527 269.597 304.54C268.877 304.54 268.137 304.553 267.377 304.58C266.63 304.593 265.923 304.607 265.257 304.62C264.603 304.633 264.037 304.647 263.557 304.66C262.21 304.7 260.997 304.747 259.917 304.8C258.837 304.853 258.003 304.913 257.417 304.98ZM286.647 313.1C286.621 313.1 286.587 313.093 286.547 313.08C286.507 313.067 286.487 313.027 286.487 312.96C286.487 312.933 286.487 312.867 286.487 312.76C286.487 312.64 286.487 312.447 286.487 312.18C286.501 311.913 286.501 311.52 286.487 311C286.487 310.48 286.481 309.787 286.467 308.92C286.467 308.573 286.427 308.213 286.347 307.84C286.281 307.467 286.214 307.233 286.147 307.14C286.094 307.06 286.081 306.993 286.107 306.94C286.147 306.887 286.214 306.86 286.307 306.86L287.587 306.9C288.014 306.913 288.547 306.92 289.187 306.92C289.827 306.92 290.494 306.913 291.187 306.9C291.881 306.873 292.507 306.847 293.067 306.82C293.641 306.793 294.054 306.76 294.307 306.72C294.334 306.72 294.361 306.713 294.387 306.7C294.481 306.687 294.561 306.687 294.627 306.7L295.687 306.84C295.794 306.853 295.834 306.933 295.807 307.08C295.794 307.253 295.774 307.48 295.747 307.76C295.734 308.027 295.721 308.293 295.707 308.56C295.694 308.813 295.687 309.007 295.687 309.14L295.627 312.74C295.627 312.927 295.527 313.02 295.327 313.02C294.954 313.007 294.481 313 293.907 313C293.334 313 292.727 313 292.087 313C291.447 313 290.821 313 290.207 313C289.594 313 289.054 313 288.587 313C288.121 313.013 287.781 313.027 287.567 313.04L286.647 313.1ZM287.687 311.94C287.874 311.953 288.187 311.967 288.627 311.98C289.081 311.98 289.594 311.98 290.167 311.98C290.741 311.967 291.314 311.953 291.887 311.94C292.461 311.927 292.974 311.913 293.427 311.9C293.881 311.887 294.207 311.867 294.407 311.84L294.447 308C294.447 307.907 294.434 307.853 294.407 307.84C294.381 307.813 294.334 307.8 294.267 307.8L287.687 307.88V311.94ZM284.187 304.44C283.894 304.44 283.667 304.3 283.507 304.02C283.347 303.74 283.267 303.387 283.267 302.96V299.12C283.267 298.68 283.227 298.26 283.147 297.86C283.067 297.447 282.994 297.193 282.927 297.1C282.887 297.033 282.887 296.973 282.927 296.92C282.967 296.853 283.014 296.82 283.067 296.82L284.427 296.9C284.947 296.9 285.547 296.893 286.227 296.88C286.921 296.867 287.627 296.84 288.347 296.8C289.081 296.747 289.774 296.68 290.427 296.6C290.467 296.587 290.514 296.593 290.567 296.62C290.621 296.633 290.654 296.673 290.667 296.74C290.694 296.9 290.714 297.06 290.727 297.22C290.754 297.38 290.767 297.487 290.767 297.54C290.794 297.687 290.714 297.76 290.527 297.76H288.307C287.814 297.76 287.221 297.78 286.527 297.82C285.834 297.847 285.167 297.873 284.527 297.9V302.9C284.527 303.033 284.547 303.127 284.587 303.18C284.641 303.22 284.701 303.247 284.767 303.26C285.181 303.287 285.727 303.28 286.407 303.24C287.087 303.2 287.827 303.127 288.627 303.02C289.441 302.9 290.234 302.747 291.007 302.56C291.781 302.36 292.461 302.12 293.047 301.84C293.181 301.787 293.254 301.8 293.267 301.88L293.407 302.6C293.421 302.733 293.354 302.833 293.207 302.9C292.754 303.1 292.181 303.293 291.487 303.48C290.807 303.653 290.061 303.813 289.247 303.96C288.434 304.107 287.594 304.227 286.727 304.32C285.861 304.4 285.014 304.44 284.187 304.44ZM294.347 305.58C294.294 305.58 294.267 305.547 294.267 305.48V297.64C294.267 297.133 294.247 296.667 294.207 296.24C294.181 295.813 294.134 295.533 294.067 295.4C294.041 295.333 294.041 295.287 294.067 295.26C294.107 295.22 294.154 295.2 294.207 295.2C294.341 295.2 294.534 295.2 294.787 295.2C295.054 295.2 295.294 295.207 295.507 295.22C295.574 295.22 295.607 295.273 295.607 295.38C295.567 295.873 295.541 296.307 295.527 296.68C295.527 297.04 295.527 297.46 295.527 297.94V300.38C295.887 300.38 296.274 300.367 296.687 300.34C297.114 300.3 297.507 300.26 297.867 300.22C298.241 300.167 298.521 300.113 298.707 300.06C298.827 300.047 298.894 300.087 298.907 300.18C298.934 300.353 298.954 300.527 298.967 300.7C298.981 300.873 298.994 301.047 299.007 301.22C299.007 301.367 298.947 301.44 298.827 301.44C298.641 301.413 298.354 301.4 297.967 301.4C297.581 301.387 297.167 301.38 296.727 301.38C296.301 301.38 295.901 301.393 295.527 301.42V305.08C295.527 305.28 295.514 305.4 295.487 305.44C295.474 305.48 295.434 305.507 295.367 305.52L294.347 305.58ZM301.206 305.98C301.059 305.993 300.959 305.98 300.906 305.94C300.853 305.9 300.813 305.84 300.786 305.76C300.733 305.613 300.686 305.467 300.646 305.32C300.606 305.173 300.559 304.987 300.506 304.76C300.493 304.733 300.499 304.7 300.526 304.66C300.553 304.607 300.599 304.587 300.666 304.6C301.173 304.667 301.866 304.72 302.746 304.76C303.626 304.787 304.593 304.793 305.646 304.78C306.459 304.78 307.326 304.773 308.246 304.76C309.166 304.733 310.079 304.707 310.986 304.68C311.906 304.64 312.773 304.6 313.586 304.56C314.413 304.52 315.139 304.473 315.766 304.42C316.406 304.367 316.899 304.307 317.246 304.24C317.379 304.213 317.466 304.22 317.506 304.26C317.546 304.3 317.573 304.353 317.586 304.42L317.706 305.3C317.719 305.487 317.593 305.573 317.326 305.56C316.913 305.533 316.353 305.52 315.646 305.52C314.953 305.52 314.199 305.527 313.386 305.54C312.666 305.54 311.926 305.553 311.166 305.58C310.419 305.593 309.713 305.607 309.046 305.62C308.393 305.633 307.826 305.647 307.346 305.66C305.999 305.7 304.786 305.747 303.706 305.8C302.626 305.853 301.793 305.913 301.206 305.98ZM305.386 301.7C304.919 301.713 304.593 301.587 304.406 301.32C304.219 301.053 304.126 300.6 304.126 299.96V297.72C304.126 297.36 304.099 297 304.046 296.64C304.006 296.28 303.966 296.033 303.926 295.9C303.886 295.767 303.933 295.7 304.066 295.7C304.133 295.7 304.266 295.713 304.466 295.74C304.666 295.753 304.859 295.767 305.046 295.78C305.233 295.793 305.339 295.807 305.366 295.82C305.419 295.833 305.446 295.887 305.446 295.98C305.406 296.673 305.386 297.387 305.386 298.12V299.52C305.386 300.013 305.419 300.327 305.486 300.46C305.553 300.593 305.693 300.667 305.906 300.68C306.239 300.693 306.639 300.7 307.106 300.7C307.573 300.7 308.046 300.693 308.526 300.68C309.019 300.667 309.479 300.653 309.906 300.64C310.333 300.627 310.679 300.613 310.946 300.6C311.733 300.56 312.419 300.507 313.006 300.44C313.593 300.373 314.053 300.307 314.386 300.24C314.519 300.213 314.606 300.22 314.646 300.26C314.686 300.287 314.713 300.333 314.726 300.4L314.806 301.32C314.819 301.4 314.799 301.453 314.746 301.48C314.693 301.507 314.573 301.52 314.386 301.52C312.959 301.52 311.486 301.547 309.966 301.6C308.446 301.64 306.919 301.673 305.386 301.7ZM306.186 313C305.719 313 305.366 312.82 305.126 312.46C304.886 312.1 304.766 311.647 304.766 311.1V309.82C304.766 309.353 304.739 308.967 304.686 308.66C304.646 308.353 304.606 308.133 304.566 308C304.526 307.867 304.573 307.8 304.706 307.8C304.773 307.8 304.899 307.807 305.086 307.82C305.286 307.82 305.473 307.827 305.646 307.84C305.833 307.853 305.939 307.86 305.966 307.86C306.033 307.873 306.066 307.94 306.066 308.06C306.053 308.367 306.039 308.64 306.026 308.88C306.026 309.107 306.026 309.393 306.026 309.74V311.04C306.026 311.387 306.066 311.627 306.146 311.76C306.239 311.88 306.413 311.947 306.666 311.96C307.039 311.973 307.513 311.987 308.086 312C308.659 312 309.253 311.993 309.866 311.98C310.493 311.967 311.073 311.947 311.606 311.92C312.166 311.893 312.733 311.853 313.306 311.8C313.893 311.733 314.353 311.667 314.686 311.6C314.819 311.573 314.906 311.58 314.946 311.62C314.986 311.66 315.013 311.713 315.026 311.78L315.186 312.68C315.199 312.827 315.099 312.9 314.886 312.9C313.566 312.9 312.173 312.913 310.706 312.94C309.253 312.98 307.746 313 306.186 313ZM335.096 313.7C334.256 313.7 333.51 313.547 332.856 313.24C332.216 312.947 331.71 312.54 331.336 312.02C330.976 311.5 330.796 310.9 330.796 310.22C330.796 309.567 330.996 308.973 331.396 308.44C331.796 307.907 332.33 307.487 332.996 307.18C333.663 306.86 334.39 306.7 335.176 306.7C335.976 306.7 336.703 306.833 337.356 307.1C338.023 307.353 338.55 307.74 338.936 308.26C339.336 308.767 339.523 309.393 339.496 310.14C339.483 310.833 339.276 311.447 338.876 311.98C338.49 312.513 337.963 312.933 337.296 313.24C336.643 313.547 335.91 313.7 335.096 313.7ZM335.136 312.66C335.976 312.633 336.683 312.407 337.256 311.98C337.843 311.553 338.15 310.933 338.176 310.12C338.203 309.587 338.076 309.14 337.796 308.78C337.53 308.42 337.163 308.147 336.696 307.96C336.243 307.76 335.73 307.66 335.156 307.66C334.596 307.673 334.083 307.793 333.616 308.02C333.15 308.233 332.776 308.527 332.496 308.9C332.216 309.273 332.076 309.707 332.076 310.2C332.076 310.707 332.21 311.147 332.476 311.52C332.756 311.88 333.13 312.16 333.596 312.36C334.063 312.56 334.576 312.66 335.136 312.66ZM326.036 305.58L325.536 305.14C325.483 305.087 325.503 305.027 325.596 304.96C325.61 304.947 325.616 304.94 325.616 304.94C326.363 304.447 327.07 303.847 327.736 303.14C328.416 302.42 329.016 301.667 329.536 300.88C330.056 300.08 330.443 299.313 330.696 298.58C330.803 298.353 330.896 298.093 330.976 297.8C331.056 297.493 331.116 297.2 331.156 296.92C331.196 296.64 331.216 296.413 331.216 296.24C331.216 296.12 331.283 296.067 331.416 296.08C331.563 296.107 331.77 296.16 332.036 296.24C332.303 296.32 332.536 296.393 332.736 296.46C332.816 296.5 332.836 296.573 332.796 296.68C332.703 296.947 332.576 297.293 332.416 297.72C332.27 298.147 332.13 298.52 331.996 298.84C331.93 299 331.85 299.173 331.756 299.36C331.676 299.533 331.583 299.713 331.476 299.9C331.876 300.193 332.296 300.513 332.736 300.86C333.19 301.193 333.623 301.527 334.036 301.86C334.463 302.18 334.836 302.473 335.156 302.74C335.476 303.007 335.71 303.213 335.856 303.36C335.91 303.4 335.95 303.467 335.976 303.56C336.016 303.64 336.003 303.727 335.936 303.82C335.883 303.9 335.756 304.027 335.556 304.2C335.37 304.373 335.236 304.5 335.156 304.58C335.05 304.647 334.97 304.633 334.916 304.54C334.69 304.193 334.35 303.787 333.896 303.32C333.456 302.853 332.976 302.387 332.456 301.92C331.95 301.44 331.476 301.033 331.036 300.7C330.583 301.447 330.003 302.24 329.296 303.08C328.59 303.92 327.71 304.74 326.656 305.54C326.59 305.593 326.503 305.64 326.396 305.68C326.29 305.72 326.17 305.687 326.036 305.58ZM338.136 306.42C338.083 306.42 338.056 306.387 338.056 306.32V297.64C338.056 297.133 338.036 296.667 337.996 296.24C337.97 295.813 337.923 295.533 337.856 295.4C337.83 295.333 337.83 295.287 337.856 295.26C337.896 295.22 337.943 295.2 337.996 295.2C338.143 295.2 338.343 295.2 338.596 295.2C338.85 295.2 339.083 295.207 339.296 295.22C339.363 295.22 339.396 295.273 339.396 295.38C339.356 295.873 339.33 296.307 339.316 296.68C339.316 297.04 339.316 297.46 339.316 297.94V300.56C339.676 300.56 340.07 300.547 340.496 300.52C340.923 300.493 341.316 300.46 341.676 300.42C342.05 300.38 342.33 300.333 342.516 300.28C342.636 300.267 342.703 300.307 342.716 300.4C342.743 300.573 342.756 300.747 342.756 300.92C342.77 301.093 342.783 301.267 342.796 301.44C342.796 301.587 342.736 301.66 342.616 301.66C342.43 301.633 342.143 301.62 341.756 301.62C341.37 301.607 340.956 301.6 340.516 301.6C340.09 301.6 339.69 301.613 339.316 301.64V305.92C339.316 306.12 339.303 306.24 339.276 306.28C339.263 306.32 339.223 306.347 339.156 306.36L338.136 306.42ZM344.495 307.58C344.428 307.527 344.335 307.46 344.215 307.38C344.108 307.287 344.022 307.207 343.955 307.14C343.875 307.047 343.882 306.973 343.975 306.92C345.322 305.973 346.368 304.987 347.115 303.96C347.862 302.933 348.395 301.933 348.715 300.96C349.035 299.973 349.222 299.093 349.275 298.32L347.855 298.4L345.655 298.6C345.522 298.613 345.435 298.6 345.395 298.56C345.355 298.507 345.322 298.447 345.295 298.38C345.282 298.367 345.275 298.353 345.275 298.34C345.222 298.193 345.182 298.067 345.155 297.96C345.142 297.84 345.108 297.667 345.055 297.44C345.042 297.347 345.095 297.3 345.215 297.3C345.588 297.327 345.935 297.347 346.255 297.36C346.588 297.36 347.075 297.36 347.715 297.36C348.435 297.36 349.082 297.347 349.655 297.32C350.242 297.293 350.782 297.26 351.275 297.22C351.795 297.18 352.208 297.147 352.515 297.12C352.822 297.093 353.088 297.067 353.315 297.04C353.555 297 353.815 296.967 354.095 296.94C354.135 296.94 354.182 296.947 354.235 296.96C354.288 296.973 354.322 297.013 354.335 297.08C354.348 297.16 354.362 297.253 354.375 297.36C354.402 297.467 354.422 297.573 354.435 297.68L354.475 298.04C354.502 298.187 354.422 298.26 354.235 298.26C353.982 298.247 353.695 298.24 353.375 298.24C353.068 298.24 352.782 298.24 352.515 298.24C352.302 298.24 352.048 298.24 351.755 298.24C351.462 298.24 351.142 298.247 350.795 298.26C350.755 298.793 350.655 299.353 350.495 299.94C350.348 300.527 350.135 301.127 349.855 301.74C350.495 302.193 351.122 302.673 351.735 303.18C352.362 303.687 352.922 304.167 353.415 304.62C353.922 305.073 354.315 305.46 354.595 305.78C354.648 305.847 354.688 305.927 354.715 306.02C354.755 306.1 354.742 306.187 354.675 306.28C354.555 306.427 354.415 306.56 354.255 306.68C354.108 306.787 353.962 306.9 353.815 307.02C353.735 307.087 353.668 307.073 353.615 306.98C353.375 306.593 353.015 306.133 352.535 305.6C352.068 305.053 351.562 304.513 351.015 303.98C350.468 303.433 349.942 302.973 349.435 302.6C348.968 303.453 348.382 304.3 347.675 305.14C346.982 305.967 346.135 306.753 345.135 307.5C345.122 307.513 345.102 307.527 345.075 307.54C344.982 307.607 344.895 307.653 344.815 307.68C344.735 307.693 344.628 307.66 344.495 307.58ZM356.635 312.2C356.582 312.2 356.555 312.167 356.555 312.1V297.66C356.555 297.153 356.535 296.687 356.495 296.26C356.468 295.82 356.422 295.533 356.355 295.4C356.328 295.333 356.328 295.287 356.355 295.26C356.395 295.22 356.442 295.2 356.495 295.2C356.575 295.2 356.708 295.207 356.895 295.22C357.095 295.22 357.288 295.227 357.475 295.24C357.662 295.24 357.768 295.24 357.795 295.24C357.862 295.24 357.895 295.293 357.895 295.4C357.855 295.893 357.828 296.327 357.815 296.7C357.815 297.06 357.815 297.48 357.815 297.96V302.64C358.175 302.64 358.562 302.627 358.975 302.6C359.402 302.56 359.795 302.52 360.155 302.48C360.528 302.427 360.808 302.373 360.995 302.32C361.115 302.307 361.182 302.347 361.195 302.44C361.222 302.613 361.242 302.787 361.255 302.96C361.268 303.133 361.282 303.307 361.295 303.48C361.295 303.627 361.235 303.7 361.115 303.7C360.915 303.673 360.622 303.66 360.235 303.66C359.862 303.66 359.462 303.66 359.035 303.66C358.608 303.66 358.202 303.667 357.815 303.68V311.7C357.815 311.9 357.802 312.02 357.775 312.06C357.762 312.1 357.722 312.127 357.655 312.14L356.635 312.2Z" fill="#411EF5"/>
<path d="M326.1 695.478L374.98 673.206L253.949 617.985L212.218 637.018C210.112 637.974 208.135 639.263 206.344 640.847L326.1 695.478ZM197.565 656.695C197.188 658.648 196.999 660.641 197 662.64V803.379C196.999 808.898 198.449 814.291 201.161 818.862C203.874 823.432 207.725 826.97 212.218 829.02L305.121 871.411C309.317 873.325 313.642 874.632 318.031 875.35V711.639L197.565 656.695ZM334.169 875.368C338.594 874.643 342.927 873.32 347.079 871.429L439.982 829.038C444.478 826.988 448.331 823.446 451.043 818.872C453.756 814.298 455.204 808.901 455.2 803.379V662.64C455.2 660.616 455.006 658.609 454.635 656.677L334.169 711.639V875.368ZM445.856 640.865L396.702 663.303L275.67 608.083L305.121 594.609C318.588 588.464 333.612 588.464 347.079 594.609L439.982 637C442.088 637.956 444.065 639.245 445.856 640.828V640.865Z" fill="#735AF3" fill-opacity="0.95"/>
<path opacity="0.2" d="M70.9044 355.202C68.752 353.957 64.9689 353.411 61.3436 353.19C64.9689 352.969 68.752 352.423 70.9044 351.178C71.8008 350.676 72.5884 350 73.2215 349.19C73.8547 348.381 74.3209 347.453 74.5929 346.462C74.865 345.471 74.9377 344.436 74.8066 343.416C74.6755 342.397 74.3434 341.414 73.8295 340.524C73.3155 339.633 72.63 338.854 71.8127 338.231C70.9953 337.608 70.0624 337.153 69.068 336.894C68.0735 336.634 67.0374 336.574 66.0197 336.717C65.002 336.861 64.0229 337.205 63.1393 337.73C60.9869 338.973 58.6233 341.972 56.6189 345.01C58.2424 341.754 59.6571 338.206 59.6571 335.719C59.6571 333.659 58.839 331.684 57.3827 330.228C55.9265 328.771 53.9514 327.953 51.8919 327.953C49.8325 327.953 47.8574 328.771 46.4011 330.228C44.9448 331.684 44.1267 333.659 44.1267 335.719C44.1267 338.206 45.5415 341.754 47.1649 345.003C45.1605 341.972 42.797 338.973 40.6445 337.723C39.7609 337.198 38.7818 336.854 37.7641 336.71C36.7464 336.567 35.7103 336.626 34.7159 336.886C33.7214 337.146 32.7885 337.601 31.9711 338.224C31.1538 338.847 30.4683 339.626 29.9543 340.516C29.4404 341.406 29.1083 342.39 28.9772 343.409C28.8461 344.428 28.9188 345.464 29.1909 346.455C29.463 347.446 29.9291 348.373 30.5623 349.183C31.1954 349.992 31.983 350.668 32.8794 351.171C35.0318 352.416 38.8149 352.962 42.4402 353.183C38.8149 353.404 35.0318 353.95 32.8794 355.195C31.983 355.697 31.1954 356.373 30.5623 357.183C29.9291 357.993 29.463 358.92 29.1909 359.911C28.9188 360.902 28.8461 361.937 28.9772 362.957C29.1083 363.976 29.4404 364.959 29.9543 365.849C30.4683 366.74 31.1538 367.519 31.9711 368.142C32.7885 368.765 33.7214 369.22 34.7159 369.48C35.7103 369.739 36.7464 369.799 37.7641 369.656C38.7818 369.512 39.7609 369.168 40.6445 368.643C42.797 367.4 45.1605 364.401 47.1649 361.363C45.5415 364.627 44.1267 368.175 44.1267 370.662C44.1267 372.721 44.9448 374.696 46.4011 376.153C47.8574 377.609 49.8325 378.427 51.8919 378.427C53.9514 378.427 55.9265 377.609 57.3827 376.153C58.839 374.696 59.6571 372.721 59.6571 370.662C59.6571 368.175 58.2424 364.627 56.6189 361.378C58.6233 364.408 60.9869 367.408 63.1393 368.657C64.0229 369.182 65.002 369.527 66.0197 369.67C67.0374 369.814 68.0735 369.754 69.068 369.494C70.0624 369.234 70.9953 368.78 71.8127 368.156C72.63 367.533 73.3155 366.754 73.8295 365.864C74.3434 364.974 74.6755 363.991 74.8066 362.971C74.9377 361.952 74.865 360.917 74.5929 359.925C74.3209 358.934 73.8547 358.007 73.2215 357.197C72.5884 356.388 71.8008 355.712 70.9044 355.209V355.202ZM58.6161 357.073C57.6738 358.704 56.1707 359.937 54.3867 360.542C52.6026 361.148 50.6594 361.084 48.9191 360.363C47.1787 359.641 45.7599 358.312 44.927 356.622C44.094 354.933 43.9038 352.998 44.3917 351.178C44.8795 349.358 46.0123 347.778 47.5788 346.732C49.1454 345.685 51.0389 345.244 52.9067 345.49C54.7744 345.737 56.4889 346.653 57.7309 348.07C58.9728 349.487 59.6574 351.306 59.6571 353.19C59.6599 354.554 59.3006 355.894 58.6161 357.073Z" fill="#735AF3"/>
<path d="M71.8753 353.52C71.6788 353.406 71.4628 353.297 71.2396 353.19C71.4628 353.083 71.6788 352.974 71.8753 352.86C72.9881 352.228 73.9648 351.381 74.7491 350.369C75.5334 349.358 76.1098 348.201 76.4452 346.965C76.7806 345.73 76.8684 344.441 76.7034 343.171C76.5384 341.902 76.1239 340.677 75.4838 339.569C74.8438 338.46 73.9908 337.489 72.9739 336.712C71.9571 335.934 70.7964 335.365 69.5589 335.038C68.3213 334.711 67.0312 334.632 65.7629 334.805C64.4947 334.979 63.2732 335.401 62.1689 336.049C61.9723 336.163 61.7685 336.291 61.5671 336.434C61.5865 336.192 61.5986 335.949 61.5986 335.706C61.5986 333.132 60.576 330.663 58.7557 328.843C56.9354 327.023 54.4665 326 51.8922 326C49.3179 326 46.849 327.023 45.0287 328.843C43.2083 330.663 42.1857 333.132 42.1857 335.706C42.1857 335.935 42.1857 336.177 42.2172 336.434C42.0158 336.296 41.812 336.163 41.6154 336.049C40.5111 335.401 39.2897 334.979 38.0214 334.805C36.7531 334.632 35.463 334.711 34.2255 335.038C32.9879 335.365 31.8273 335.934 30.8104 336.712C29.7936 337.489 28.9405 338.46 28.3005 339.569C27.6604 340.677 27.246 341.902 27.081 343.171C26.916 344.441 27.0037 345.73 27.3391 346.965C27.6745 348.201 28.2509 349.358 29.0352 350.369C29.8195 351.381 30.7962 352.228 31.909 352.86C32.1055 352.974 32.3215 353.083 32.5448 353.19C32.3215 353.297 32.1055 353.406 31.909 353.52C30.7962 354.153 29.8195 354.999 29.0352 356.011C28.2509 357.023 27.6745 358.18 27.3391 359.415C27.0037 360.65 26.916 361.94 27.081 363.209C27.246 364.479 27.6604 365.703 28.3005 366.812C28.9405 367.92 29.7936 368.891 30.8104 369.669C31.8273 370.446 32.9879 371.015 34.2255 371.342C35.463 371.669 36.7531 371.749 38.0214 371.575C39.2897 371.402 40.5111 370.979 41.6154 370.332C41.812 370.218 42.0158 370.089 42.2172 369.946C42.1978 370.189 42.1857 370.431 42.1857 370.662C42.1857 373.236 43.2083 375.705 45.0287 377.525C46.849 379.346 49.3179 380.368 51.8922 380.368C54.4665 380.368 56.9354 379.346 58.7557 377.525C60.576 375.705 61.5986 373.236 61.5986 370.662C61.5986 370.434 61.5865 370.191 61.5671 369.946C61.7685 370.084 61.9723 370.218 62.1689 370.332C63.6392 371.184 65.3083 371.632 67.0075 371.632C67.8614 371.631 68.7114 371.519 69.5361 371.298C71.3904 370.801 73.0558 369.765 74.3215 368.321C75.5872 366.878 76.3964 365.091 76.6468 363.188C76.8972 361.285 76.5775 359.35 75.7282 357.628C74.8789 355.906 73.5381 354.475 71.8753 353.515V353.52ZM46.0683 353.19C46.0683 352.038 46.4099 350.912 47.0498 349.955C47.6897 348.997 48.5993 348.25 49.6635 347.81C50.7276 347.369 51.8986 347.254 53.0283 347.478C54.1581 347.703 55.1958 348.258 56.0103 349.072C56.8247 349.887 57.3794 350.924 57.6041 352.054C57.8289 353.184 57.7135 354.355 57.2727 355.419C56.8319 356.483 56.0855 357.393 55.1277 358.033C54.17 358.673 53.044 359.014 51.8922 359.014C50.3476 359.014 48.8663 358.401 47.7741 357.308C46.6819 356.216 46.0683 354.735 46.0683 353.19ZM64.1102 339.409C64.7725 339.027 65.5037 338.779 66.262 338.679C67.0202 338.579 67.7908 338.63 68.5295 338.828C69.2683 339.026 69.9608 339.367 70.5675 339.833C71.1743 340.298 71.6834 340.879 72.0658 341.541C72.4482 342.204 72.6964 342.935 72.7963 343.693C72.8961 344.451 72.8456 345.222 72.6476 345.961C72.4497 346.699 72.1081 347.392 71.6425 347.999C71.1769 348.605 70.5964 349.115 69.934 349.497C68.4126 350.378 65.4181 350.984 61.4021 351.242C60.9784 349.187 59.9006 347.325 58.33 345.935C60.5625 342.581 62.5887 340.29 64.1102 339.409ZM51.8922 329.895C53.4368 329.895 54.9181 330.508 56.0103 331.6C57.1025 332.693 57.716 334.174 57.716 335.719C57.716 337.475 56.7454 340.375 54.9594 343.984C52.9689 343.317 50.8154 343.317 48.8249 343.984C47.0389 340.375 46.0683 337.475 46.0683 335.719C46.0683 334.174 46.6819 332.693 47.7741 331.6C48.8663 330.508 50.3476 329.895 51.8922 329.895ZM31.7173 341.542C32.0996 340.88 32.6087 340.299 33.2155 339.833C33.8223 339.367 34.5149 339.026 35.2538 338.828C35.9927 338.63 36.7634 338.579 37.5219 338.679C38.2803 338.779 39.0117 339.027 39.6742 339.409C41.1956 340.29 43.2219 342.581 45.4544 345.935C43.8824 347.327 42.8045 349.192 42.3823 351.249C38.3662 350.992 35.3718 350.385 33.8503 349.507C33.1867 349.124 32.605 348.615 32.1386 348.008C31.6721 347.4 31.33 346.707 31.1319 345.967C30.9338 345.227 30.8835 344.456 30.984 343.696C31.0844 342.937 31.3336 342.205 31.7173 341.542ZM39.6742 366.971C38.3365 367.743 36.7468 367.953 35.2548 367.553C33.7628 367.153 32.4908 366.177 31.7185 364.839C30.9462 363.502 30.7369 361.912 31.1367 360.42C31.5365 358.928 32.5126 357.656 33.8503 356.884C35.3718 356.003 38.3662 355.396 42.3823 355.139C42.8059 357.193 43.8838 359.055 45.4544 360.446C43.2219 363.799 41.1956 366.09 39.6742 366.971ZM51.8922 376.486C50.3476 376.486 48.8663 375.872 47.7741 374.78C46.6819 373.688 46.0683 372.206 46.0683 370.662C46.0683 368.905 47.0389 366.005 48.8249 362.397C50.8154 363.063 52.9689 363.063 54.9594 362.397C56.7454 366.005 57.716 368.905 57.716 370.662C57.716 372.206 57.1025 373.688 56.0103 374.78C54.9181 375.872 53.4368 376.486 51.8922 376.486ZM72.067 364.838C71.6848 365.501 71.1757 366.081 70.5689 366.547C69.962 367.013 69.2694 367.355 68.5305 367.553C67.7916 367.751 67.0209 367.801 66.2624 367.702C65.504 367.602 64.7726 367.354 64.1102 366.971C62.5887 366.09 60.5625 363.799 58.33 360.446C59.9019 359.053 60.9799 357.189 61.4021 355.132C65.4181 355.389 68.4126 355.995 69.934 356.874C70.5976 357.256 71.1793 357.766 71.6458 358.373C72.1122 358.98 72.4543 359.674 72.6524 360.413C72.8505 361.153 72.9008 361.925 72.8004 362.684C72.6999 363.443 72.4507 364.175 72.067 364.838Z" fill="#735AF3" fill-opacity="0.35"/>
</g>
<defs>
<clipPath id="clip0_321_58">
<rect width="390" height="844" fill="white"/>
</clipPath>
</defs>
</svg>
